<?xml version="1.0" standalone="no"?><!DOCTYPE svg PUBLIC "-//W3C//DTD SVG 1.1//EN" "http://www.w3.org/Graphics/SVG/1.1/DTD/svg11.dtd"><svg class="icon" width="200px" height="200.00px" viewBox="0 0 1024 1024" version="1.1" xmlns="http://www.w3.org/2000/svg"><path d="M950.035928 773.045908 329.389222 773.045908C290.427146 773.045908 259.001996 810.155689 259.001996 856.07984L259.001996 939.0499C259.001996 984.91018 290.363273 1022.01996 329.389222 1022.01996L950.035928 1022.01996C988.870259 1022.01996 1020.359281 984.91018 1020.359281 939.0499L1020.359281 856.07984C1020.359281 810.155689 988.934132 773.045908 950.035928 773.045908L950.035928 773.045908ZM446.786427 966.834331C407.50499 966.834331 375.568862 934.51497 375.568862 894.59481 375.568862 854.546906 407.50499 822.291417 446.786427 822.291417 485.94012 822.291417 517.876248 854.546906 517.876248 894.59481 517.876248 934.578842 485.94012 966.834331 446.786427 966.834331L446.786427 966.834331ZM638.850299 966.131737C600.91018 966.131737 570.123752 935.281437 570.123752 897.149701 570.123752 859.017964 600.91018 828.103792 638.850299 828.103792 676.726547 828.103792 707.576846 859.017964 707.576846 897.149701 707.576846 935.281437 676.726547 966.131737 638.850299 966.131737L638.850299 966.131737ZM833.341317 968.175649C793.037924 968.175649 760.207585 936.558882 760.207585 897.40519 760.207585 858.123752 793.037924 826.443114 833.341317 826.443114 873.644711 826.443114 906.47505 858.123752 906.47505 897.40519 906.47505 936.558882 873.644711 968.175649 833.341317 968.175649L833.341317 968.175649Z" fill="#1296db" /><path d="M766.083832 514.363273 767.42515 385.724551 474.762475 385.724551 421.556886 251.784431 421.301397 251.017964 420.982036 251.145709 255.808383 78.946108 278.035928 21.461078 222.850299 0 78.626747 401.309381C8.047904 441.037924-18.778443 530.39521 18.842315 602.570858 57.165669 675.768463 165.94012 725.588822 238.562874 686.562874 294.834331 656.41517 205.349301 469.077844 137.06986 413.892216L232.175649 140.135729 370.267465 284.167665 452.087824 577.021956C452.087824 577.021956 452.087824 537.996008 452.087824 640.638723 452.087824 743.281437 517.94012 700.934132 517.94012 700.934132L903.153693 700.934132C903.153693 700.934132 957.061876 725.844311 957.061876 636.61477L957.061876 558.754491C957.061876 503.377246 897.149701 513.532934 897.149701 513.532934L766.083832 514.363273 766.083832 514.363273ZM705.596806 644.726547 507.976048 644.726547 507.976048 445.125749 705.596806 445.125749 705.596806 644.726547 705.596806 644.726547Z" fill="#1296db" /></svg>